<svg xmlns="http://www.w3.org/2000/svg" width="512" height="512" viewBox="0 0 512 512" role="img" aria-label="Basketball">
  <!--
    Basketball from Google Material Symbols (sports_basketball), Apache License 2.0:
    https://github.com/google/material-design-icons
    Teal ground rather than the app background, deliberately. This app and
    the-nba-schedule are both basketball on #0e1117, so a shared ball on a shared
    ground gave two icons nobody could tell apart on a home screen. The teal is
    the differentiator; see docs/ICONS.md in sports-viewer-meta.
    Flat fill, no gradient: ImageMagick drops a fill referencing url(#id) and
    bakes the background pure black. Full bleed, no rounded corners, because the
    OS applies its own mask. Transform derived from the path bounding box
    (19.901 x 19.9, centred at 12, 12 in a 24 viewBox), scaled so the longest
    edge is 62 percent of the canvas.
    Keep this comment free of doubled hyphens: they are illegal in XML and stop
    the whole file parsing.
  -->
  <rect width="512" height="512" fill="#0d4448" />
  <g transform="translate(64.5726 64.5885) scale(15.951)" fill="#ff7a29">
    <path d="M2.05 10.975q.125-1.275.525-2.412t1.1-2.138q.875.9 1.463 2.088t.762 2.462zm16.05 0q.175-1.275.75-2.45t1.475-2.075q.7.975 1.1 2.125t.525 2.4zM3.675 17.55q-.7-.975-1.1-2.113t-.525-2.412H5.9q-.175 1.275-.763 2.45T3.676 17.55m16.65 0q-.9-.9-1.475-2.075t-.75-2.45h3.85q-.125 1.25-.525 2.4t-1.1 2.125m-12.4-6.575q-.2-1.8-.975-3.325T4.925 4.9q1.2-1.2 2.738-1.925t3.312-.925v8.925zm5.1 0V2.05q1.775.2 3.313.925T19.075 4.9Q17.8 6.1 17.038 7.638t-.963 3.337zm-2.05 10.975q-1.8-.2-3.325-.937t-2.725-1.938q1.275-1.2 2.038-2.725t.962-3.325h3.05zm2.05 0v-8.925h3.05q.2 1.8.963 3.338t2.037 2.737q-1.2 1.2-2.738 1.925t-3.312.925" />
  </g>
</svg>
